<svg xmlns="http://www.w3.org/2000/svg" version="1.1" xmlns:xlink="http://www.w3.org/1999/xlink" xmlns:svgjs="http://svgjs.dev/svgjs" width="1000" height="1000" viewBox="0 0 1000 1000"><rect width="1000" height="1000" fill="#ffffff"></rect><g transform="matrix(0.7,0,0,0.7,149.57605563665675,293.9192649430096)"><svg viewBox="0 0 396 234" data-background-color="#89939e" preserveAspectRatio="xMidYMid meet" height="590" width="1000" xmlns="http://www.w3.org/2000/svg" xmlns:xlink="http://www.w3.org/1999/xlink"><g id="tight-bounds" transform="matrix(1,0,0,1,0.24008861730862918,-0.23737176953687822)"><svg viewBox="0 0 395.52 234.47485430077512" height="234.47485430077512" width="395.52"><g><svg viewBox="0 0 395.52 234.47485430077512" height="234.47485430077512" width="395.52"><g><svg viewBox="0 0 395.52 234.47485430077512" height="234.47485430077512" width="395.52"><g><svg viewBox="0 0 395.52 234.47485430077512" height="234.47485430077512" width="395.52"><g><svg viewBox="0 0 395.52 234.47485430077512" height="234.47485430077512" width="395.52"><path d="M394.594 50.29C392.735 25.952 387.435 19.186 387.435 19.186 371.165-5.883 350.86-0.48 332.619 3.123 300.414 3.269 268.339 8.623 236.208 11.495 168.767 11.933 100.749 4.729 33.643 22.496 27.339 27.948-6.54 23.567 1.121 53.406 3.129 65.818 10.456 79.594 10.232 90.984 11.236 92.98 12.631 88.404 13.226 91.276 15.309 99.016 18.711 95.365 21.501 99.941 17.614 112.159 20.403 122.332 23.062 132.992 18.377 135.767 12.371 134.453 9.675 143.653 9.396 150.321 7.89 149.056 6.235 148.764 5.026 148.569 2.59 149.299 2.999 151.392 4.394 158.548-1.594 162.685 2.162 169.695-0.422 177.288 3.948 183.86 3.353 192.086 3.278 193.741 3.687 195.153 4.338 195.542 7.22 197.635 3.018 201.724 3.464 206.154 33.029 236.431 65.104 215.499 95.394 229.421 103.259 219.686 97.346 232.877 100.489 230.833 102.943 228.448 104.728 238.329 107.499 232.731 107.927 231.125 107.276 227.328 108.8 228.058 109.6 228.448 110.307 228.35 110.418 226.111 110.586 222.752 109.117 224.845 108.726 223.093 112.947 214.234 111.906 235.311 115.866 234.435 115.68 231.855 114.528 228.155 116.889 228.642 119.232 224.943 119.306 221.876 121.389 230.2 121.463 232.001 121.835 233.267 122.43 234.143 128.938 225.089 135.409 237.355 142.233 233.267 146.417 228.788 150.433 235.7 154.672 233.997 156.16 232.634 157.666 230.2 159.098 234.289 176.632 235.165 195.319 231.514 211.943 234.435 256.364 228.983 303.835 236.674 350.674 229.47 361.719 226.695 373.192 222.752 383.958 219.588 383.958 219.588 392.679 210.924 392.679 171.982S394.538 137.909 394.817 106.902C395.096 75.894 396.398 74.629 394.538 50.29Z" opacity="1" fill="#ffffff" data-fill-palette-color="tertiary"></path><g transform="matrix(1,0,0,1,55.76832,26.230666666666668)"><svg width="283.98335999999995" viewBox="5 -34.45000076293945 53.75 34.45000076293945" height="182.0135209674418" data-palette-color="#89939e"><path d="M20.2-18.2Q23.75-17.6 25.95-15.7 28.15-13.8 28.15-9.8L28.15-9.8Q28.15 0 14.5 0L14.5 0 5 0 5-34.45 13.15-34.45Q19.7-34.45 23.18-32.3 26.65-30.15 26.65-25.75L26.65-25.75Q26.65-22.75 24.78-20.75 22.9-18.75 20.2-18.2L20.2-18.2ZM13.65-30.7L9.75-30.7 9.75-19.85 14.95-19.85Q17.95-19.85 19.88-21.3 21.8-22.75 21.8-25.4L21.8-25.4Q21.8-28.4 19.78-29.55 17.75-30.7 13.65-30.7L13.65-30.7ZM14.5-3.8Q18.7-3.8 20.93-5.05 23.15-6.3 23.15-9.8L23.15-9.8Q23.15-13.2 21-14.7 18.85-16.2 15.4-16.2L15.4-16.2 9.75-16.2 9.75-3.8 14.5-3.8ZM58.75 0L53.75 0 51.15-8.65 38.1-8.65 35.5 0 30.7 0 41.75-34.45 47.75-34.45 58.75 0ZM44.65-30.5L39.25-12.5 50-12.5 44.65-30.5Z" opacity="1" transform="matrix(1,0,0,1,0,0)" fill="#89939e" class="undefined-text-0" data-fill-palette-color="quaternary" id="text-0"></path></svg></g></svg></g></svg></g></svg></g><g></g></svg></g><defs></defs></svg><rect width="395.52" height="234.47485430077512" fill="none" stroke="none" visibility="hidden"></rect></g></svg></g></svg>